<?xml version="1.0" encoding="UTF-8"?>
<!DOCTYPE svg PUBLIC "-//W3C//DTD SVG 1.1//EN" "http://www.w3.org/Graphics/SVG/1.1/DTD/svg11.dtd">
<svg xmlns="http://www.w3.org/2000/svg" version="1.1" width="512px" height="512px" style="shape-rendering:geometricPrecision; text-rendering:geometricPrecision; image-rendering:optimizeQuality; fill-rule:evenodd; clip-rule:evenodd" xmlns:xlink="http://www.w3.org/1999/xlink">
<g><path style="opacity:0.984" fill="#fbc23e" d="M 273.5,91.5 C 258.489,88.8204 244.822,83.1538 232.5,74.5C 230.055,54.0001 236.055,36.5001 250.5,22C 256.695,16.7098 263.862,13.5431 272,12.5C 275.534,12.9261 278.201,14.5927 280,17.5C 280.789,23.2367 280.456,28.9034 279,34.5C 272.515,46.8019 266.015,59.1352 259.5,71.5C 264.269,68.8636 268.935,65.3636 273.5,61C 280.146,56.2274 287.479,54.5607 295.5,56C 299.286,57.0694 300.953,59.5694 300.5,63.5C 299.539,70.6418 296.206,76.4752 290.5,81C 284.931,84.7518 279.264,88.2518 273.5,91.5 Z"/></g>
<g><path style="opacity:1" fill="#f09c1f" d="M 232.5,74.5 C 244.822,83.1538 258.489,88.8204 273.5,91.5C 273.5,91.8333 273.5,92.1667 273.5,92.5C 267.439,93.9129 261.439,95.5796 255.5,97.5C 249.084,95.9799 242.751,94.3132 236.5,92.5C 235.159,86.4725 233.826,80.4725 232.5,74.5 Z"/></g>
<g><path style="opacity:0.997" fill="#fac13f" d="M 236.5,92.5 C 242.751,94.3132 249.084,95.9799 255.5,97.5C 261.439,95.5796 267.439,93.9129 273.5,92.5C 280.877,91.0472 288.211,91.2139 295.5,93C 298.167,94.3333 300.167,96.3333 301.5,99C 308.925,98.9397 315.925,100.606 322.5,104C 323.376,105.586 324.376,107.086 325.5,108.5C 332.82,110.107 339.82,112.607 346.5,116C 350.268,118.965 351.268,122.631 349.5,127C 358.995,131.578 367.995,136.911 376.5,143C 380.676,146.519 382.843,151.019 383,156.5C 389.646,161.148 395.646,166.482 401,172.5C 404.442,176.907 404.942,181.574 402.5,186.5C 407.895,193.958 412.228,201.958 415.5,210.5C 406.72,209.644 400.554,213.311 397,221.5C 391.011,233.118 387.344,245.451 386,258.5C 384.716,270.798 384.216,283.131 384.5,295.5C 382.518,295.995 380.518,296.495 378.5,297C 364.285,314.394 347.285,328.227 327.5,338.5C 327.5,337.833 327.167,337.5 326.5,337.5C 318.296,308.463 299.963,288.963 271.5,279C 236.94,273.887 210.773,286.387 193,316.5C 189.321,322.852 186.488,329.519 184.5,336.5C 183.833,337.5 183.167,338.5 182.5,339.5C 163.67,328.193 147.003,314.026 132.5,297C 130.482,296.495 128.482,295.995 126.5,295.5C 127.661,275.121 125.495,255.121 120,235.5C 117.721,228.276 114.388,221.609 110,215.5C 106.219,211.01 101.386,209.343 95.5,210.5C 98.7719,201.958 103.105,193.958 108.5,186.5C 106.058,181.574 106.558,176.907 110,172.5C 115.354,166.482 121.354,161.148 128,156.5C 128.25,150.501 130.75,145.667 135.5,142C 143.84,136.495 152.507,131.495 161.5,127C 159.732,122.631 160.732,118.965 164.5,116C 170.812,112.674 177.479,110.34 184.5,109C 186.303,107.738 187.636,106.071 188.5,104C 195.046,100.556 202.046,98.8897 209.5,99C 213.34,93.1455 218.84,90.6455 226,91.5C 229.523,91.7067 233.023,92.04 236.5,92.5 Z"/></g>
<g><path style="opacity:1" fill="#703609" d="M 195.5,131.5 C 203.553,131.225 211.553,131.725 219.5,133C 221.291,135.106 221.958,137.606 221.5,140.5C 206.827,138.025 192.161,137.858 177.5,140C 183.208,136.31 189.208,133.477 195.5,131.5 Z"/></g>
<g><path style="opacity:1" fill="#713609" d="M 293.5,131.5 C 307.87,129.807 321.204,132.64 333.5,140C 325.587,139.035 317.587,138.535 309.5,138.5C 302.684,138.279 296.017,138.945 289.5,140.5C 289.5,137.833 289.5,135.167 289.5,132.5C 291.099,132.768 292.432,132.434 293.5,131.5 Z"/></g>
<g><path style="opacity:1" fill="#f8ae2b" d="M 247.5,196.5 C 246.833,196.5 246.167,196.5 245.5,196.5C 214.714,198.369 184.048,197.369 153.5,193.5C 155.765,153.054 176.765,136.221 216.5,143C 230.494,148.327 239.66,158.16 244,172.5C 245.987,180.712 247.154,188.712 247.5,196.5 Z"/></g>
<g><path style="opacity:1" fill="#f8ae2b" d="M 357.5,193.5 C 326.934,197.323 296.268,198.323 265.5,196.5C 264.833,196.5 264.167,196.5 263.5,196.5C 263.124,181.723 267.29,168.056 276,155.5C 285.772,144.874 297.939,140.207 312.5,141.5C 330.951,141.445 344.117,149.779 352,166.5C 355.051,175.257 356.885,184.257 357.5,193.5 Z"/></g>
<g><path style="opacity:1" fill="#fefdfd" d="M 153.5,194.5 C 173.853,199.502 194.52,201.502 215.5,200.5C 217.207,210.269 222.374,212.602 231,207.5C 232.908,204.794 233.741,201.794 233.5,198.5C 237.684,198.149 241.684,197.482 245.5,196.5C 246.167,196.5 246.833,196.5 247.5,196.5C 247.599,199.237 247.265,201.904 246.5,204.5C 242.824,209.848 239.658,215.515 237,221.5C 234.809,222.833 232.976,224.5 231.5,226.5C 229.181,226.992 227.181,227.992 225.5,229.5C 224.475,229.897 224.308,230.563 225,231.5C 227.191,232.833 229.024,234.5 230.5,236.5C 214.722,249.997 197.388,252.164 178.5,243C 161.861,231.224 153.527,215.057 153.5,194.5 Z"/></g>
<g><path style="opacity:1" fill="#783e14" d="M 153.5,193.5 C 184.048,197.369 214.714,198.369 245.5,196.5C 241.684,197.482 237.684,198.149 233.5,198.5C 227.601,199.674 221.601,200.341 215.5,200.5C 194.52,201.502 173.853,199.502 153.5,194.5C 150.833,194.167 150.833,193.833 153.5,193.5 Z"/></g>
<g><path style="opacity:1" fill="#763b10" d="M 357.5,193.5 C 358.833,193.833 358.833,194.167 357.5,194.5C 337.432,199.005 317.098,201.005 296.5,200.5C 290.343,200.822 284.343,200.155 278.5,198.5C 273.924,198.562 269.591,197.895 265.5,196.5C 296.268,198.323 326.934,197.323 357.5,193.5 Z"/></g>
<g><path style="opacity:1" fill="#fefdfc" d="M 357.5,194.5 C 357.46,215.082 349.127,231.249 332.5,243C 318.668,249.925 304.668,250.258 290.5,244C 286.538,241.86 283.204,239.027 280.5,235.5C 282.167,234.167 283.833,232.833 285.5,231.5C 286.525,231.103 286.692,230.437 286,229.5C 284.53,228.733 283.03,228.067 281.5,227.5C 279.188,225.364 276.688,223.364 274,221.5C 271.342,215.515 268.176,209.848 264.5,204.5C 263.908,201.873 263.575,199.206 263.5,196.5C 264.167,196.5 264.833,196.5 265.5,196.5C 269.591,197.895 273.924,198.562 278.5,198.5C 278.546,208.394 283.213,211.894 292.5,209C 295.321,206.859 296.654,204.025 296.5,200.5C 317.098,201.005 337.432,199.005 357.5,194.5 Z"/></g>
<g><path style="opacity:1" fill="#a65733" d="M 233.5,198.5 C 233.741,201.794 232.908,204.794 231,207.5C 222.374,212.602 217.207,210.269 215.5,200.5C 221.601,200.341 227.601,199.674 233.5,198.5 Z"/></g>
<g><path style="opacity:1" fill="#a65733" d="M 278.5,198.5 C 284.343,200.155 290.343,200.822 296.5,200.5C 296.654,204.025 295.321,206.859 292.5,209C 283.213,211.894 278.546,208.394 278.5,198.5 Z"/></g>
<g><path style="opacity:1" fill="#f78429" d="M 264.5,204.5 C 268.176,209.848 271.342,215.515 274,221.5C 276.688,223.364 279.188,225.364 281.5,227.5C 264.908,223.951 248.241,223.618 231.5,226.5C 232.976,224.5 234.809,222.833 237,221.5C 239.658,215.515 242.824,209.848 246.5,204.5C 249.108,202.404 252.108,201.07 255.5,200.5C 258.639,201.57 261.639,202.904 264.5,204.5 Z"/></g>
<g><path style="opacity:0.991" fill="#f29715" d="M 95.5,210.5 C 101.386,209.343 106.219,211.01 110,215.5C 114.388,221.609 117.721,228.276 120,235.5C 125.495,255.121 127.661,275.121 126.5,295.5C 126.495,309.744 124.662,323.744 121,337.5C 119.981,341.397 118.481,345.064 116.5,348.5C 115.201,352.318 112.534,353.818 108.5,353C 72.3016,328.41 59.8016,294.91 71,252.5C 75.9161,237.998 82.9161,224.665 92,212.5C 93.1127,211.695 94.2794,211.028 95.5,210.5 Z"/></g>
<g><path style="opacity:0.991" fill="#f29715" d="M 415.5,210.5 C 419.822,213.663 423.322,217.663 426,222.5C 440.756,244.756 446.422,269.089 443,295.5C 436.89,319.932 423.39,339.099 402.5,353C 398.466,353.818 395.799,352.318 394.5,348.5C 391.645,342.769 389.478,336.769 388,330.5C 386.129,318.904 384.963,307.237 384.5,295.5C 384.216,283.131 384.716,270.798 386,258.5C 387.344,245.451 391.011,233.118 397,221.5C 400.554,213.311 406.72,209.644 415.5,210.5 Z"/></g>
<g><path style="opacity:1" fill="#813d0d" d="M 281.5,227.5 C 283.03,228.067 284.53,228.733 286,229.5C 286.692,230.437 286.525,231.103 285.5,231.5C 285.389,230.883 285.056,230.383 284.5,230C 264.845,226.919 245.178,226.753 225.5,229.5C 227.181,227.992 229.181,226.992 231.5,226.5C 248.241,223.618 264.908,223.951 281.5,227.5 Z"/></g>
<g><path style="opacity:1" fill="#f88427" d="M 285.5,231.5 C 283.833,232.833 282.167,234.167 280.5,235.5C 279.206,236.29 278.039,237.29 277,238.5C 274.25,246.414 270.917,254.081 267,261.5C 258.486,272.394 250.486,272.06 243,260.5C 239.741,253.723 237.074,246.723 235,239.5C 233.729,238.117 232.229,237.117 230.5,236.5C 229.024,234.5 227.191,232.833 225,231.5C 224.308,230.563 224.475,229.897 225.5,229.5C 245.178,226.753 264.845,226.919 284.5,230C 285.056,230.383 285.389,230.883 285.5,231.5 Z"/></g>
<g><path style="opacity:1" fill="#fdd983" d="M 326.5,337.5 C 325.323,339.032 323.989,340.532 322.5,342C 277.469,361.664 232.469,361.33 187.5,341C 185.859,339.871 184.859,338.371 184.5,336.5C 186.488,329.519 189.321,322.852 193,316.5C 210.773,286.387 236.94,273.887 271.5,279C 299.963,288.963 318.296,308.463 326.5,337.5 Z"/></g>
<g><path style="opacity:1" fill="#feb931" d="M 126.5,295.5 C 128.482,295.995 130.482,296.495 132.5,297C 147.003,314.026 163.67,328.193 182.5,339.5C 176.805,359.083 174.472,379.083 175.5,399.5C 158.892,389.401 144.225,376.901 131.5,362C 129.392,361.64 127.392,360.973 125.5,360C 121.877,356.551 118.877,352.717 116.5,348.5C 118.481,345.064 119.981,341.397 121,337.5C 124.662,323.744 126.495,309.744 126.5,295.5 Z"/></g>
<g><path style="opacity:1" fill="#feb931" d="M 384.5,295.5 C 384.963,307.237 386.129,318.904 388,330.5C 389.478,336.769 391.645,342.769 394.5,348.5C 392.123,352.717 389.123,356.551 385.5,360C 383.608,360.973 381.608,361.64 379.5,362C 366.775,376.901 352.108,389.401 335.5,399.5C 336.449,378.643 333.782,358.31 327.5,338.5C 347.285,328.227 364.285,314.394 378.5,297C 380.518,296.495 382.518,295.995 384.5,295.5 Z"/></g>
<g><path style="opacity:1" fill="#fed37c" d="M 184.5,336.5 C 184.859,338.371 185.859,339.871 187.5,341C 232.469,361.33 277.469,361.664 322.5,342C 323.989,340.532 325.323,339.032 326.5,337.5C 327.167,337.5 327.5,337.833 327.5,338.5C 333.782,358.31 336.449,378.643 335.5,399.5C 319.364,409.104 302.03,415.771 283.5,419.5C 278.63,419.69 273.964,420.356 269.5,421.5C 260.167,421.5 250.833,421.5 241.5,421.5C 237.036,420.356 232.37,419.69 227.5,419.5C 208.97,415.771 191.636,409.104 175.5,399.5C 174.472,379.083 176.805,359.083 182.5,339.5C 183.167,338.5 183.833,337.5 184.5,336.5 Z"/></g>
<g><path style="opacity:0.897" fill="#f19513" d="M 227.5,419.5 C 232.37,419.69 237.036,420.356 241.5,421.5C 242.5,442.504 242.5,463.504 241.5,484.5C 234.167,488.833 226.833,493.167 219.5,497.5C 219.167,497.333 218.833,497.167 218.5,497C 220.833,494.667 223.167,492.333 225.5,490C 219.167,489.667 212.833,489.333 206.5,489C 211.543,487.822 216.543,486.489 221.5,485C 217.117,484.398 212.784,483.565 208.5,482.5C 217.844,481.588 227.177,480.588 236.5,479.5C 233.496,459.471 230.496,439.471 227.5,419.5 Z"/></g>
<g><path style="opacity:0.893" fill="#f19513" d="M 283.5,419.5 C 280.504,439.471 277.504,459.471 274.5,479.5C 284.131,480.709 293.798,481.542 303.5,482C 299.043,483.635 294.377,484.635 289.5,485C 294.457,486.489 299.457,487.822 304.5,489C 298.167,489.333 291.833,489.667 285.5,490C 287.833,492.333 290.167,494.667 292.5,497C 284.694,493.424 277.027,489.257 269.5,484.5C 268.5,463.504 268.5,442.504 269.5,421.5C 273.964,420.356 278.63,419.69 283.5,419.5 Z"/></g>
</svg>
